<mxfile host="app.diagrams.net" modified="2021-11-09T13:46:00.544Z" agent="5.0 (Windows NT 10.0; Win64; x64) AppleWebKit/537.36 (KHTML, like Gecko) Chrome/95.0.4638.69 Safari/537.36" etag="G69TLVNpbS-dMwN-vSGz" version="15.6.8" type="github">
  <diagram id="zP3AriLeZ0x4zKPp6E03" name="Page-1">
    <mxGraphModel dx="1422" dy="762" grid="1" gridSize="10" guides="1" tooltips="1" connect="1" arrows="1" fold="1" page="1" pageScale="1" pageWidth="850" pageHeight="1100" math="0" shadow="0">
      <root>
        <mxCell id="0" />
        <mxCell id="1" parent="0" />
        <mxCell id="96BlOOsoumWJtGjEGC4U-1" value="&lt;h1&gt;&lt;i&gt;&lt;br&gt;&lt;u&gt;Nils &amp;amp; Gurras CI-graf&lt;/u&gt;&amp;nbsp;&lt;/i&gt;&lt;/h1&gt;&lt;p&gt;&lt;br&gt;&lt;/p&gt;" style="text;html=1;strokeColor=#666666;fillColor=#f5f5f5;spacing=5;spacingTop=-20;whiteSpace=wrap;overflow=hidden;rounded=0;gradientColor=#b3b3b3;" vertex="1" parent="1">
          <mxGeometry x="330" y="20" width="270" height="90" as="geometry" />
        </mxCell>
        <mxCell id="96BlOOsoumWJtGjEGC4U-2" value="" style="edgeStyle=orthogonalEdgeStyle;rounded=0;orthogonalLoop=1;jettySize=auto;html=1;fillColor=#008a00;strokeColor=#005700;" edge="1" parent="1" source="96BlOOsoumWJtGjEGC4U-3" target="96BlOOsoumWJtGjEGC4U-5">
          <mxGeometry relative="1" as="geometry" />
        </mxCell>
        <mxCell id="96BlOOsoumWJtGjEGC4U-3" value="Skapa ny branch" style="rounded=1;whiteSpace=wrap;html=1;fillColor=#dae8fc;strokeColor=#6c8ebf;" vertex="1" parent="1">
          <mxGeometry x="390" y="120" width="120" height="60" as="geometry" />
        </mxCell>
        <mxCell id="96BlOOsoumWJtGjEGC4U-4" value="" style="edgeStyle=orthogonalEdgeStyle;rounded=0;orthogonalLoop=1;jettySize=auto;html=1;fillColor=#008a00;strokeColor=#005700;" edge="1" parent="1" source="96BlOOsoumWJtGjEGC4U-5" target="96BlOOsoumWJtGjEGC4U-7">
          <mxGeometry relative="1" as="geometry" />
        </mxCell>
        <mxCell id="96BlOOsoumWJtGjEGC4U-5" value="Pusha koden" style="rounded=1;whiteSpace=wrap;html=1;fillColor=#dae8fc;strokeColor=#6c8ebf;" vertex="1" parent="1">
          <mxGeometry x="390" y="210" width="120" height="60" as="geometry" />
        </mxCell>
        <mxCell id="96BlOOsoumWJtGjEGC4U-6" value="" style="edgeStyle=orthogonalEdgeStyle;rounded=0;orthogonalLoop=1;jettySize=auto;html=1;fillColor=#008a00;strokeColor=#005700;" edge="1" parent="1" source="96BlOOsoumWJtGjEGC4U-7" target="96BlOOsoumWJtGjEGC4U-12">
          <mxGeometry relative="1" as="geometry" />
        </mxCell>
        <mxCell id="96BlOOsoumWJtGjEGC4U-7" value="Automatiserad bygg och test" style="whiteSpace=wrap;html=1;rounded=1;fillColor=#dae8fc;strokeColor=#6c8ebf;" vertex="1" parent="1">
          <mxGeometry x="390" y="300" width="120" height="60" as="geometry" />
        </mxCell>
        <mxCell id="96BlOOsoumWJtGjEGC4U-8" value="" style="edgeStyle=orthogonalEdgeStyle;rounded=0;orthogonalLoop=1;jettySize=auto;html=1;fillColor=#008a00;strokeColor=#005700;" edge="1" parent="1" source="96BlOOsoumWJtGjEGC4U-9">
          <mxGeometry relative="1" as="geometry">
            <mxPoint x="450" y="650" as="targetPoint" />
          </mxGeometry>
        </mxCell>
        <mxCell id="96BlOOsoumWJtGjEGC4U-9" value="Reviewa koden" style="whiteSpace=wrap;html=1;rounded=1;fillColor=#dae8fc;strokeColor=#6c8ebf;" vertex="1" parent="1">
          <mxGeometry x="390" y="560" width="120" height="60" as="geometry" />
        </mxCell>
        <mxCell id="96BlOOsoumWJtGjEGC4U-10" value="Sant" style="edgeStyle=orthogonalEdgeStyle;rounded=0;orthogonalLoop=1;jettySize=auto;html=1;fillColor=#a20025;strokeColor=#6F0000;" edge="1" parent="1" source="96BlOOsoumWJtGjEGC4U-12">
          <mxGeometry relative="1" as="geometry">
            <mxPoint x="590" y="450" as="targetPoint" />
          </mxGeometry>
        </mxCell>
        <mxCell id="96BlOOsoumWJtGjEGC4U-11" value="Falskt" style="edgeStyle=orthogonalEdgeStyle;rounded=0;orthogonalLoop=1;jettySize=auto;html=1;fillColor=#008a00;strokeColor=#005700;" edge="1" parent="1" source="96BlOOsoumWJtGjEGC4U-12" target="96BlOOsoumWJtGjEGC4U-9">
          <mxGeometry relative="1" as="geometry" />
        </mxCell>
        <mxCell id="96BlOOsoumWJtGjEGC4U-12" value="Om det &quot;smäller&quot; i koden" style="rhombus;whiteSpace=wrap;html=1;fillColor=#a20025;fontColor=#ffffff;strokeColor=#6F0000;" vertex="1" parent="1">
          <mxGeometry x="405" y="400" width="90" height="100" as="geometry" />
        </mxCell>
        <mxCell id="96BlOOsoumWJtGjEGC4U-13" value="" style="endArrow=classic;html=1;rounded=0;exitX=0.5;exitY=0;exitDx=0;exitDy=0;entryX=1;entryY=0.5;entryDx=0;entryDy=0;" edge="1" parent="1" target="96BlOOsoumWJtGjEGC4U-7">
          <mxGeometry width="50" height="50" relative="1" as="geometry">
            <mxPoint x="650" y="420" as="sourcePoint" />
            <mxPoint x="650" y="230" as="targetPoint" />
            <Array as="points">
              <mxPoint x="650" y="330" />
            </Array>
          </mxGeometry>
        </mxCell>
        <mxCell id="96BlOOsoumWJtGjEGC4U-14" value="Pusha rättelser" style="whiteSpace=wrap;html=1;rounded=1;fillColor=#0050ef;fontColor=#ffffff;strokeColor=#001DBC;" vertex="1" parent="1">
          <mxGeometry x="590" y="420" width="120" height="60" as="geometry" />
        </mxCell>
      </root>
    </mxGraphModel>
  </diagram>
</mxfile>
